<svg xmlns="http://www.w3.org/2000/svg" xml:space="preserve" fill-rule="evenodd" clip-rule="evenodd"
  image-rendering="optimizeQuality" shape-rendering="geometricPrecision"
  text-rendering="geometricPrecision" viewBox="0 0 150 27.962398">
  <metadata/>
  <!-- This is one of the dumbest thing I ve done in a while -->
  <style>
    .main_color { fill: #fff; }
    .color1 { fill: #ff00ff; }
    .color2 { fill: #ffff00; }
    .color3 { fill: #00ffff; }
  </style>
  <g transform="translate(-2.6335459 -6.0369065)">
    <metadata/>
    <g transform="rotate(45 17.96298473 13.87554446)">
      <ellipse cx="23.240934" cy="28.016277" class="color1" stroke="#dededd" stroke-width=".00688276"  rx="1.2175171" ry="1.217479" transform="rotate(-35.172222) skewX(.0001)"/>
      <ellipse cx=".84584248" cy="30.542917" class="color2" stroke="#dededd" stroke-width=".00832792"  rx="1.4731647" ry="1.4731059" transform="rotate(-35.172267) skewX(-.000058)"/>
      <path class="main_color" d="M30.547329 4.9199906c1.348701-1.3487 2.952401-1.98 4.8138-1.8965 1.691601.0786 3.1423.7256 4.352401 1.9357 1.215599 1.2156 1.854299 2.7075 1.913399 4.4676.0564 1.7627994-.5856 3.3117004-1.9233 4.6493994-1.343101 1.343099-2.894801 1.987901-4.657699 1.931498-1.7628-.0564-3.252002-.697797-4.467601-1.913399-1.2046-1.2046-1.849-2.652598-1.9276-4.3440984-.0916-1.8642.5424-3.4761 1.8966-4.8302zm1.098099 1.098c-.935799.9358-1.395299 2.0837-1.378599 3.4437.0168 1.3598984.5114 2.5261004 1.489301 3.5040004.6283.628199 1.367 1.064099 2.2188 1.299498.851899.240801 1.682699.2459 2.503399.0206.815201-.225199 1.535201-.650099 2.159999-1.274899.622001-.6221 1.047101-1.3421 1.275001-2.159999.2224-.818.220099-1.6514994-.02072-2.5032994-.2381-.8491-.671198-1.5906-1.299498-2.218801-.9779-.977899-2.1468-1.469799-3.509501-1.483799-1.362699-.014-2.507901.4427-3.438201 1.373zm1.00900096 14.4115-1.1367 1.1367-8.7084-8.7082 1.1368-1.1368zM2.876029 20.467689l.2158-2.8065 7.1467 7.293201c-.1292-1.316301-.0043-2.5167.371201-3.611499.3789-1.091401 1.001499-2.077 1.8782-2.953701 1.556599-1.556501 3.447099-2.323601 5.671599-2.307901 2.221.01911 4.1331.8267 5.7327 2.426301 1.579 1.579 2.3729 3.4842 2.3748 5.715599.0053 2.227902-.7756 4.125302-2.339 5.688802-.8974.8973-1.9002 1.5166-3.0087 1.8646-1.1084.347999-2.3224.4179-3.6453.213199l1.9577 1.981999-1.3811 1.381102c-4.9689-4.9828-9.9845-9.924102-14.9746-14.885202zm21.1944 5.438202c.2825-1.0497.2728-2.122401-.0291-3.211201-.2984-1.0922-.8381-2.0253-1.6156-2.802901-.7742-.774099-1.7142-1.313798-2.8133-1.618999-1.0991-.3053-2.1821-.318302-3.2456-.0358-1.06.279101-1.9697.798201-2.7324 1.561-.7766.7765-1.3165 1.706899-1.6232 2.794499-.3066 1.087702-.3176 2.1535-.0292 3.1873.2917 1.037302.8452 1.970402 1.6775 2.802701 1.2639 1.263901 2.74 1.897899 4.4281 1.908601 2.7944.01789 5.2572-1.9124 5.9828-4.5852z" />
    </g>
    <g transform="rotate(-45 50.16340324 19.52449585)">
      <path class="main_color" d="m52.26807996 34.8857396-1.13765-1.13765 12.978549-12.978549.383862 1.891438z"/>
      <path class="main_color" d="m48.75322869 31.37088858-1.13679997-1.13679997 8.70839774-8.70829774 1.13680073 1.1366992zM46.421732 11.62279l1.1285 1.128401-1.5625 1.562498c1.0496-.146798 1.9985-.0939 2.8413.158801.8427.2528 1.5902.699801 2.237 1.346601.6551.655099 1.0692 1.402399 1.2479 2.2421.1759.836998.1078 1.659297-.2127 2.458698-.3178.802202-1.0708 1.7974-2.2536 2.980202l-4.482651 4.482549-1.120199-1.120199 4.15485-4.154751c1.0025-1.002499 1.6277-1.715799 1.8783-2.1371.4415-.7112.6227-1.3933.5434-2.057101-.0821-.661199-.419-1.292998-1.0163-1.890299-.6826-.6826-1.5176-1.069702-2.505-1.161099-.9902-.0888-1.9026.107899-2.7342.5983-.539004.3242-1.383503 1.058598-2.530804 2.205899l-3.193198 3.193201-1.1285-1.128502z" />
      <ellipse cx="60.252239" cy="-29.756079" class="color3" stroke="#dededd" stroke-width=".00688285"  rx="1.2175128" ry="1.2175183" transform="matrix(.57604142 .81742051 -.81742783 .57603103 0 0)"/>
      <path class="main_color" stroke="#dededd" stroke-width=".02150534" d="m60.670332 43.65699-.0001.0335 4.1612-.0288-4.7631 1.530601-2.3123-10.334699c.9046.4189 1.9927.379499 2.8864-.183202v8.982601h.0279zm3.6914-9.853499 6.6897-.0175.0204 3.868 1.0345-4.499701-10.3245-2.31c.4472.968601.3432 2.0941-.2394 2.959202h2.8193z" />
    </g>
    <text x="37.5" y="27.5" class="main_color"  font-family="Segoe UI" font-size="3.5769999" font-weight="400" transform="matrix(1.873098 .00570852 -.00568467 1.873098 19.438145 -26.970109)">koło robotyki</text>
    <path class="color2" d="M90.131493 26.261635h42.042522v2.0804973H90.131493z"/>
  </g>
</svg>